<svg width="24" height="24" viewBox="0 0 24 24" fill="none" xmlns="http://www.w3.org/2000/svg">
  <path fill-rule="evenodd" clip-rule="evenodd" d="M12 1.25C8.13401 1.25 5 4.38401 5 8.25C5 11.861 8.19102 17.2806 11.264 20.3876C11.681 20.8281 12.319 20.8281 12.736 20.3876C15.809 17.2806 19 11.861 19 8.25C19 4.38401 15.866 1.25 12 1.25ZM7.5 8.25C7.5 5.90279 9.65279 3.75 12 3.75C14.3472 3.75 16.5 5.90279 16.5 8.25C16.5 11.3728 13.9153 15.7404 12 18.1532C10.0847 15.7404 7.5 11.3728 7.5 8.25ZM12 10.25C13.2426 10.25 14.25 9.24264 14.25 8C14.25 6.75736 13.2426 5.75 12 5.75C10.7574 5.75 9.75 6.75736 9.75 8C9.75 9.24264 10.7574 10.25 12 10.25Z" fill="white"/>
</svg>
