<svg width="24" height="24" viewBox="0 0 24 24" fill="none" xmlns="http://www.w3.org/2000/svg">
  <path fill-rule="evenodd" clip-rule="evenodd" d="M12 1.25C12.4142 1.25 12.75 1.58579 12.75 2V4H15C15.4142 4 15.75 4.33579 15.75 4.75C15.75 5.16421 15.4142 5.5 15 5.5H9C8.58579 5.5 8.25 5.16421 8.25 4.75C8.25 4.33579 8.58579 4 9 4H11.25V2C11.25 1.58579 11.5858 1.25 12 1.25ZM7 6.75H17C18.2426 6.75 19.25 7.75736 19.25 9V13.9825C19.25 14.573 19.0525 15.145 18.6871 15.6156L14.2802 21.6161C13.9525 22.059 13.4811 22.25 13.0098 22.25H10.9902C10.5189 22.25 10.0475 22.059 9.71981 21.6161L5.31291 15.6156C4.94746 15.145 4.75 14.573 4.75 13.9825V9C4.75 7.75736 5.75736 6.75 7 6.75ZM12 8C10.4812 8 9.25 9.23122 9.25 10.75C9.25 11.1642 9.58579 11.5 10 11.5C10.4142 11.5 10.75 11.1642 10.75 10.75C10.75 9.7835 11.5335 9 12.5 9C13.4665 9 14.25 9.7835 14.25 10.75C14.25 11.088 14.1634 11.3821 13.946 11.6548C13.7318 11.9248 13.402 12.1555 12.9371 12.4192L12.938 12.4197C12.4073 12.7066 11.7221 13.0683 11.2613 13.6963C10.7868 14.343 10.5 15.1983 10.5 16.25C10.5 16.6642 10.8358 17 11.25 17C11.6642 17 12 16.6642 12 16.25C12 15.3017 12.2132 14.7315 12.4911 14.3537C12.7802 13.9621 13.2771 13.6534 13.8129 13.3664C14.7213 12.8779 15.75 12.1754 15.75 10.75C15.75 9.23122 14.5188 8 13 8H12Z" fill="white"/>
</svg>
